<?xml version="1.0" encoding="UTF-8"?>
<svg id="Layer_2" data-name="Layer 2" xmlns="http://www.w3.org/2000/svg" viewBox="0 0 150.85 184.14">
  <defs>
    <style>
      .cls-1 {
        fill: #496074;
      }
    </style>
  </defs>
  <g id="Layer_1-2" data-name="Layer 1">
    <path class="cls-1" d="m14,.14c24.34-.05,48.68-.09,73.02-.14,1.41.16,21.59,2.75,29.44,19.75,1.02,2.21,4.87,10.9,1.83,21.4-4.11,14.16-17.29,19.62-19.02,20.3,6.52,1.69,19.1,5.91,30.72,16.83,5.05,4.75,18.5,17.37,20.67,38.41.22,2.09,2.28,25.89-14.81,44.44-9.21,9.99-19.43,13.53-29.99,17.19-7.16,2.48-29.03,9.73-55.6,3.11-9-2.24-21.59-5.38-33.1-16.46-4.17-4.01-13.77-13.11-16.46-27.62-4.79-25.9,16.66-45.96,19.02-48.1,17.46-15.82,38.69-15.58,46.27-15,6.02.46,29.6,3.17,40.97,20.85,2.29,3.55,6.98,10.85,4.57,19.2-1.76,6.12-7.05,11.82-14.08,13.17-10.82,2.08-21.02-7.07-21.95-14.81-.87-7.33,6.13-16.95,6.58-17.56,2.07-2.8,4.36-4.94,4.21-8.23-.16-3.49-2.96-5.98-3.84-6.77-7.69-6.84-21.36-3.09-21.95-2.93-18.96,5.45-26.09,30.4-27.43,35.11-.96,3.38-7.37,27.21,5.85,49.38,3.12,5.23,8.15,13.66,18.47,18.29,14.97,6.72,29.77.38,33.65-1.28,18.59-7.96,25.91-25.27,28.53-31.46,2.24-5.3,7.99-19.44,4.02-37.31-3.46-15.59-12.5-25.9-18.47-31.27-16.47-14.83-35.75-15.67-40.97-15.73,2.72.12,10.34.07,17.01-5.12,7.79-6.07,9.23-16.47,9.69-20.3,1.2-10.07-.69-28.41-13.53-34.02-6.37-2.78-12.99-1.37-17.01,0v58.9c-3.54,0-7.92.34-12.8,1.45-7.45,1.7-13.25,4.57-17.19,6.95V10.97c-.33-1.1-1.03-2.87-2.56-4.57-2.58-2.87-5.8-3.63-6.95-3.84h-6.86c.02-.81.03-1.62.05-2.42Z"/>
  </g>
</svg>