<?xml version="1.0" encoding="UTF-8"?>
<svg id="Layer_2" data-name="Layer 2" xmlns="http://www.w3.org/2000/svg" viewBox="0 0 218.55 239">
  <defs>
    <style>
      .cls-1 {
        fill: #fff;
      }

      .cls-2 {
        fill: none;
        stroke: #496074;
        stroke-miterlimit: 10;
      }

      .cls-3 {
        fill: #68859d;
      }
    </style>
  </defs>
  <g id="Layer_1-2" data-name="Layer 1">
    <g>
      <path class="cls-1" d="m33.36,166.71c4.45,10.08,19.45,44.02,53.09,53.09,39.35,10.61,83.4-18.41,100.38-55.98,16.88-37.36,11.61-93.42-31.37-119.2-40.55-24.32-93.1-8.75-117.75,25.58-27.73,38.61-9.15,85.63-4.34,96.52Z"/>
      <path class="cls-3" d="m22.11,76.33C35.21,44.93,59.79,15.9,95.7,12.84c20.55-1.88,41.1,4.78,58.29,15.81,22.89,14.76,41.11,37.24,49.16,63.38,7.9,26.02,7.64,54.88-2.74,80.18-28.93,70.7-122.9,76.18-169.65,20.29C3.35,160.23,5.68,113.2,22.11,76.33h0Zm.09.04C6.07,113.21,3.93,159.94,31.49,191.92c46.52,55.3,139.29,49.97,168.42-19.91,15.44-37.68,9.48-83.78-16.22-115.58-20.89-26.18-53.67-45.47-87.91-42.88-35.73,2.78-60.37,31.67-73.56,62.82h0Z"/>
      <path class="cls-2" d="m204.77,70.06c-5.6-12.68-24.46-55.37-66.78-66.78C88.5-10.06,33.08,26.44,11.73,73.7-9.51,120.7-2.88,191.22,51.19,223.64c51.01,30.6,117.11,11.01,148.12-32.17,34.88-48.57,11.52-107.71,5.46-121.41Z"/>
    </g>
  </g>
</svg>